<svg width="25" height="24" viewBox="0 0 25 24" fill="none" xmlns="http://www.w3.org/2000/svg">
    <path
        d="M19.4452 0.111328H18.0565H4.96113C3.47522 0.111328 2.21151 1.04179 1.91988 2.34721L0.0590326 10.6797C-0.315915 12.4017 1.14221 13.9988 3.10028 13.9988H8.97446L6.86364 20.8592C6.41926 22.2896 7.58576 23.72 9.19665 23.72C10.0021 23.72 10.7798 23.3867 11.3075 22.8173L19.4452 13.9988H25V0.111328H19.4452ZM10.2798 21.873C10.016 22.1646 9.61326 22.3313 9.19665 22.3313C8.83559 22.3313 8.5023 22.1785 8.32177 21.9147C8.22456 21.7758 8.11346 21.5536 8.19679 21.2619L10.3076 14.4015L10.8631 12.61H8.97446H3.10028C2.53091 12.61 1.98932 12.374 1.66992 11.9712C1.50328 11.7629 1.32275 11.4157 1.41995 10.9713L3.28081 2.63885C3.41968 1.98614 4.12791 1.50007 4.96113 1.50007H18.0565V13.4572L10.2798 21.873ZM23.6113 12.61H19.4452V1.50007H23.6113V12.61Z"
        fill="black" />
</svg>