<svg viewBox="0 0 20 20" fill="none" xmlns="http://www.w3.org/2000/svg">
    <path
        d="M12.7592 14.7071L7.87 11.6771V4.91875H9.8375V10.5852L13.802 13.0347L12.7592 14.7071ZM9.8375 0.98375C4.9581 0.98375 0.98375 4.9581 0.98375 9.8375C0.98375 14.7169 4.9581 18.6913 9.8375 18.6913C14.7169 18.6913 18.6913 14.7169 18.6913 9.8375C18.6913 4.9581 14.7169 0.98375 9.8375 0.98375ZM9.8375 0C15.2678 0 19.675 4.4072 19.675 9.8375C19.675 15.2678 15.2678 19.675 9.8375 19.675C4.4072 19.675 0 15.2678 0 9.8375C0 4.4072 4.4072 0 9.8375 0Z"
        fill="black" />
</svg>