<svg width="24" height="24" viewBox="0 0 24 24" fill="none" xmlns="http://www.w3.org/2000/svg">
<path d="M16.7804 14.7453H15.7574L15.3949 14.3957C16.6639 12.9196 17.4278 11.0032 17.4278 8.91841C17.4278 4.26982 13.6597 0.50174 9.01116 0.50174C4.36256 0.50174 0.594482 4.26982 0.594482 8.91841C0.594482 13.567 4.36256 17.3351 9.01116 17.3351C11.0959 17.3351 13.0123 16.5711 14.4885 15.3021L14.8381 15.6647V16.6876L21.3124 23.1491L23.2418 21.2197L16.7804 14.7453ZM9.01116 14.7453C5.78692 14.7453 3.18423 12.1426 3.18423 8.91841C3.18423 5.69418 5.78692 3.09149 9.01116 3.09149C12.2354 3.09149 14.8381 5.69418 14.8381 8.91841C14.8381 12.1426 12.2354 14.7453 9.01116 14.7453Z" fill="white"/>
</svg>
