<svg width="78" height="78" viewBox="0 0 78 78" fill="none" xmlns="http://www.w3.org/2000/svg">
<circle cx="39.1155" cy="38.8845" r="38.8845" fill="#FF0000"/>
<path d="M47.1752 43.1542H45.5841L45.0202 42.6104C46.994 40.3144 48.1822 37.3337 48.1822 34.0911C48.1822 26.8608 42.3214 21 35.0911 21C27.8608 21 22 26.8608 22 34.0911C22 41.3214 27.8608 47.1822 35.0911 47.1822C38.3337 47.1822 41.3144 45.994 43.6104 44.0202L44.1542 44.5841V46.1752L54.2243 56.2252L57.2252 53.2243L47.1752 43.1542ZM35.0911 43.1542C30.0762 43.1542 26.028 39.106 26.028 34.0911C26.028 29.0762 30.0762 25.028 35.0911 25.028C40.106 25.028 44.1542 29.0762 44.1542 34.0911C44.1542 39.106 40.106 43.1542 35.0911 43.1542Z" fill="white"/>
</svg>
