<svg width="25" height="24" viewBox="0 0 25 24" fill="none" xmlns="http://www.w3.org/2000/svg">
<path d="M21.8997 9.72087H16.0255L18.1364 2.86071C18.5807 1.43036 17.4142 0 15.8034 0C14.9979 0 14.2202 0.333287 13.6925 0.902652L5.55478 9.72087H0V23.6078H5.55478H6.94348H20.0389C21.5109 23.6078 22.7885 22.6774 23.0801 21.372L24.941 13.0399C25.3159 11.3179 23.8578 9.72087 21.8997 9.72087ZM5.55478 22.2191H1.3887V11.1096H5.55478V22.2191ZM23.58 12.7343L21.7192 21.0665C21.5803 21.7331 20.8721 22.2191 20.0389 22.2191H6.94348V10.2625L14.7202 1.84696C14.984 1.55534 15.3867 1.3887 15.8034 1.3887C16.1644 1.3887 16.4977 1.54145 16.6782 1.8053C16.7754 1.94417 16.8865 2.16636 16.8032 2.45799L14.6924 9.31815L14.1369 11.1096H16.0117H21.8858C22.4552 11.1096 22.9968 11.3456 23.3162 11.7484C23.4967 11.9567 23.6773 12.3038 23.58 12.7343Z" fill="black"/>
</svg>
