<svg width="50" height="50" viewBox="0 0 50 50" fill="none" xmlns="http://www.w3.org/2000/svg">
<circle cx="25" cy="25" r="25" fill="#FF0000"/>
<path d="M30.1859 28.2436H29.163L28.8004 27.894C30.0694 26.4178 30.8333 24.5014 30.8333 22.4167C30.8333 17.7681 27.0653 14 22.4167 14C17.7681 14 14 17.7681 14 22.4167C14 27.0653 17.7681 30.8333 22.4167 30.8333C24.5014 30.8333 26.4178 30.0694 27.894 28.8004L28.2436 29.163V30.1859L34.718 36.6473L36.6473 34.718L30.1859 28.2436ZM22.4167 28.2436C19.1924 28.2436 16.5897 25.6409 16.5897 22.4167C16.5897 19.1924 19.1924 16.5897 22.4167 16.5897C25.6409 16.5897 28.2436 19.1924 28.2436 22.4167C28.2436 25.6409 25.6409 28.2436 22.4167 28.2436Z" fill="white"/>
</svg>
